<svg width="29" height="29" viewBox="0 0 29 29" fill="none" xmlns="http://www.w3.org/2000/svg">
<path d="M10.8398 5.21875C7.73269 5.21875 5.17944 7.7685 5.17944 10.8791V18.8084C5.17944 21.9155 7.72919 24.4688 10.8398 24.4688H18.7691C21.8762 24.4688 24.4294 21.919 24.4294 18.8084V10.88C24.4294 7.772 21.8797 5.21875 18.7691 5.21875H10.8398ZM10.8398 6.96875H18.7691C19.2828 6.96806 19.7916 7.06873 20.2663 7.265C20.7411 7.46127 21.1724 7.74928 21.5357 8.11253C21.8989 8.47578 22.1869 8.90713 22.3832 9.38187C22.5795 9.85661 22.6801 10.3654 22.6794 10.8791V18.8084C22.6801 19.3221 22.5795 19.8309 22.3832 20.3056C22.1869 20.7804 21.8989 21.2117 21.5357 21.575C21.1724 21.9382 20.7411 22.2262 20.2663 22.4225C19.7916 22.6188 19.2828 22.7194 18.7691 22.7188H10.8407C10.3269 22.7196 9.81801 22.619 9.34317 22.4228C8.86833 22.2265 8.43688 21.9385 8.07353 21.5753C7.71019 21.212 7.4221 20.7806 7.22578 20.3058C7.02945 19.831 6.92875 19.3222 6.92944 18.8084V10.88C6.92864 10.3662 7.02923 9.85732 7.22544 9.38248C7.42166 8.90764 7.70965 8.47618 8.07291 8.11284C8.43618 7.7495 8.86756 7.46141 9.34236 7.26509C9.81716 7.06876 10.326 6.96806 10.8398 6.96875ZM19.9722 8.88325C19.868 8.88279 19.7647 8.90298 19.6683 8.94265C19.5719 8.98233 19.4843 9.0407 19.4106 9.11441C19.3369 9.18811 19.2785 9.27569 19.2388 9.37208C19.1992 9.46847 19.179 9.57176 19.1794 9.676C19.1794 10.117 19.5312 10.4688 19.9722 10.4688C20.0765 10.4693 20.1799 10.4492 20.2764 10.4096C20.3729 10.37 20.4606 10.3116 20.5344 10.2379C20.6082 10.1642 20.6666 10.0766 20.7063 9.98012C20.7461 9.88368 20.7663 9.78031 20.7658 9.676C20.7663 9.57169 20.7461 9.46832 20.7063 9.37188C20.6666 9.27543 20.6082 9.18781 20.5344 9.1141C20.4606 9.04038 20.3729 8.98202 20.2764 8.9424C20.1799 8.90277 20.0765 8.88267 19.9722 8.88325ZM14.8044 9.59375C11.9169 9.59375 9.55444 11.9563 9.55444 14.8438C9.55444 17.7313 11.9169 20.0938 14.8044 20.0938C17.6919 20.0938 20.0544 17.7313 20.0544 14.8438C20.0544 11.9563 17.6919 9.59375 14.8044 9.59375ZM14.8044 11.3438C16.7496 11.3438 18.3044 12.8986 18.3044 14.8438C18.3044 16.7889 16.7496 18.3438 14.8044 18.3438C12.8593 18.3438 11.3044 16.7889 11.3044 14.8438C11.3044 12.8986 12.8593 11.3438 14.8044 11.3438Z" fill="white"/>
</svg>
