<svg width="29" height="30" viewBox="0 0 29 30" fill="none" xmlns="http://www.w3.org/2000/svg">
<path d="M15.7333 3.00538C16.609 3.00202 17.4847 3.01082 18.3601 3.03178L18.5929 3.04018C18.8617 3.04978 19.1269 3.06178 19.4473 3.07618C20.7241 3.13618 21.5953 3.33778 22.3597 3.63418C23.1517 3.93898 23.8189 4.35178 24.4861 5.01898C25.0962 5.61851 25.5683 6.34372 25.8697 7.14418C26.1661 7.90858 26.3677 8.78098 26.4277 10.0578C26.4421 10.377 26.4541 10.6434 26.4637 10.9122L26.4709 11.145C26.4922 12.02 26.5014 12.8953 26.4985 13.7706L26.4997 14.6658V16.2378C26.5027 17.1135 26.4935 17.9892 26.4721 18.8646L26.4649 19.0974C26.4553 19.3662 26.4433 19.6314 26.4289 19.9518C26.3689 21.2286 26.1649 22.0998 25.8697 22.8642C25.5693 23.6655 25.097 24.3913 24.4861 24.9906C23.8861 25.6006 23.1605 26.0727 22.3597 26.3742C21.5953 26.6706 20.7241 26.8722 19.4473 26.9322C19.1269 26.9466 18.8617 26.9586 18.5929 26.9682L18.3601 26.9754C17.4847 26.9967 16.609 27.0059 15.7333 27.003L14.8381 27.0042H13.2673C12.3916 27.0071 11.5159 26.9979 10.6405 26.9766L10.4077 26.9694C10.1228 26.9591 9.83804 26.9471 9.55332 26.9334C8.27652 26.8734 7.40532 26.6694 6.63972 26.3742C5.83894 26.0734 5.1136 25.6012 4.51452 24.9906C3.90377 24.3909 3.43118 23.6653 3.12972 22.8642C2.83332 22.0998 2.63172 21.2286 2.57172 19.9518C2.55835 19.667 2.54635 19.3822 2.53572 19.0974L2.52972 18.8646C2.50759 17.9892 2.49759 17.1135 2.49972 16.2378V13.7706C2.49637 12.8953 2.50517 12.02 2.52612 11.145L2.53452 10.9122C2.54412 10.6434 2.55612 10.377 2.57052 10.0578C2.63052 8.77978 2.83212 7.90978 3.12852 7.14418C3.43016 6.34333 3.90367 5.61832 4.51572 5.02018C5.11439 4.40909 5.83927 3.93607 6.63972 3.63418C7.40532 3.33778 8.27532 3.13618 9.55332 3.07618L10.4077 3.04018L10.6405 3.03418C11.5155 3.01207 12.3908 3.00207 13.2661 3.00418L15.7333 3.00538ZM14.4997 9.00538C13.7047 8.99414 12.9154 9.14101 12.1777 9.43746C11.44 9.73392 10.7685 10.174 10.2023 10.7322C9.63617 11.2905 9.1866 11.9556 8.87974 12.6891C8.57288 13.4226 8.41487 14.2097 8.41487 15.0048C8.41487 15.7999 8.57288 16.587 8.87974 17.3205C9.1866 18.0539 9.63617 18.7191 10.2023 19.2773C10.7685 19.8355 11.44 20.2757 12.1777 20.5721C12.9154 20.8686 13.7047 21.0154 14.4997 21.0042C16.091 21.0042 17.6171 20.372 18.7424 19.2468C19.8676 18.1216 20.4997 16.5955 20.4997 15.0042C20.4997 13.4129 19.8676 11.8868 18.7424 10.7615C17.6171 9.63632 16.091 9.00538 14.4997 9.00538ZM14.4997 11.4054C14.9779 11.3966 15.4531 11.4831 15.8975 11.66C16.3418 11.8369 16.7465 12.1006 17.0878 12.4356C17.4292 12.7707 17.7003 13.1704 17.8854 13.6114C18.0706 14.0524 18.166 14.5259 18.166 15.0042C18.1661 15.4825 18.0709 15.956 17.8859 16.397C17.7009 16.8381 17.4299 17.2379 17.0887 17.5731C16.7475 17.9082 16.3429 18.172 15.8986 18.3491C15.4543 18.5261 14.9791 18.6128 14.5009 18.6042C13.5461 18.6042 12.6305 18.2249 11.9553 17.5498C11.2802 16.8746 10.9009 15.959 10.9009 15.0042C10.9009 14.0494 11.2802 13.1337 11.9553 12.4586C12.6305 11.7835 13.5461 11.4042 14.5009 11.4042L14.4997 11.4054ZM20.7997 7.20538C20.4126 7.22088 20.0465 7.38556 19.778 7.66495C19.5096 7.94433 19.3597 8.31674 19.3597 8.70418C19.3597 9.09162 19.5096 9.46403 19.778 9.74342C20.0465 10.0228 20.4126 10.1875 20.7997 10.203C21.1975 10.203 21.5791 10.0449 21.8604 9.76364C22.1417 9.48234 22.2997 9.10081 22.2997 8.70298C22.2997 8.30516 22.1417 7.92363 21.8604 7.64232C21.5791 7.36102 21.1975 7.20298 20.7997 7.20298V7.20538Z" fill="#FF002B"/>
</svg>
