<svg width="29" height="29" viewBox="0 0 29 29" fill="none" xmlns="http://www.w3.org/2000/svg">
<path d="M14.1668 15.8359C13.3015 15.8359 12.4556 15.5794 11.7361 15.0986C11.0167 14.6179 10.4559 13.9346 10.1248 13.1352C9.79364 12.3358 9.707 11.4561 9.87581 10.6074C10.0446 9.75875 10.4613 8.9792 11.0732 8.36735C11.685 7.75549 12.4646 7.33881 13.3132 7.17C14.1619 7.00119 15.0416 7.08783 15.841 7.41897C16.6404 7.7501 17.3237 8.31085 17.8044 9.03032C18.2852 9.74978 18.5417 10.5956 18.5417 11.4609C18.5404 12.6208 18.079 13.7328 17.2588 14.553C16.4386 15.3732 15.3266 15.8345 14.1668 15.8359ZM14.1668 8.83594C13.6476 8.83594 13.1401 8.98989 12.7084 9.27833C12.2767 9.56677 11.9402 9.97674 11.7416 10.4564C11.5429 10.9361 11.4909 11.4639 11.5922 11.9731C11.6935 12.4823 11.9435 12.95 12.3106 13.3171C12.6777 13.6842 13.1454 13.9342 13.6546 14.0355C14.1638 14.1368 14.6916 14.0848 15.1713 13.8861C15.651 13.6874 16.0609 13.351 16.3494 12.9193C16.6378 12.4876 16.7917 11.9801 16.7917 11.4609C16.7911 10.765 16.5143 10.0977 16.0221 9.60555C15.53 9.11342 14.8627 8.83663 14.1668 8.83594Z" fill="white"/>
<path d="M14.1668 26.3359L6.78526 17.6306C6.68269 17.4998 6.58119 17.3683 6.48076 17.2359C5.21987 15.575 4.5387 13.5463 4.54176 11.4609C4.54176 8.90823 5.55582 6.46007 7.36086 4.65504C9.16589 2.85 11.614 1.83594 14.1668 1.83594C16.7195 1.83594 19.1676 2.85 20.9727 4.65504C22.7777 6.46007 23.7918 8.90823 23.7918 11.4609C23.7948 13.5453 23.114 15.5731 21.8536 17.2333L21.8528 17.2359C21.8528 17.2359 21.5903 17.5807 21.5509 17.6271L14.1668 26.3359ZM7.87726 16.1816C7.87901 16.1816 8.08201 16.4511 8.12838 16.5088L14.1668 23.6304L20.213 16.4992C20.2515 16.4511 20.4563 16.1798 20.4571 16.1789C21.4871 14.8219 22.0438 13.1646 22.0418 11.4609C22.0418 9.37236 21.2121 7.36932 19.7352 5.89247C18.2584 4.41562 16.2553 3.58594 14.1668 3.58594C12.0782 3.58594 10.0751 4.41562 8.59829 5.89247C7.12144 7.36932 6.29176 9.37236 6.29176 11.4609C6.28992 13.1656 6.84631 14.8239 7.87726 16.1816Z" fill="white"/>
</svg>
