<svg width="26" height="21" viewBox="0 0 26 21" fill="none" xmlns="http://www.w3.org/2000/svg">
<path fill-rule="evenodd" clip-rule="evenodd" d="M3.65553 2.20462C2.75346 2.2058 2.02315 2.93803 2.02433 3.84009L2.04267 17.8401C2.04386 18.7421 2.77608 19.4725 3.67815 19.4713L22.3448 19.4468C23.2469 19.4456 23.9772 18.7134 23.976 17.8113L23.9576 3.81136C23.9565 2.90929 23.2242 2.17898 22.3222 2.18016L3.65553 2.20462ZM0.624335 3.84192C0.62214 2.16666 1.97843 0.806815 3.65369 0.80462L22.3203 0.780166C23.9956 0.777971 25.3555 2.13426 25.3576 3.80952L25.376 17.8095C25.3782 19.4848 24.0219 20.8446 22.3466 20.8468L3.67998 20.8713C2.00472 20.8735 0.64487 19.5172 0.642676 17.8419L0.624335 3.84192Z" fill="white"/>
<path fill-rule="evenodd" clip-rule="evenodd" d="M0.734707 4.63311C0.941623 4.30654 1.3741 4.20955 1.70066 4.41647L12.1723 11.0514C12.4209 11.2063 12.708 11.2882 13.0009 11.2878C13.2938 11.2874 13.5807 11.2048 13.8289 11.0493C13.8295 11.0489 13.83 11.0486 13.8306 11.0482L24.2831 4.38688C24.6091 4.17911 25.0419 4.27497 25.2496 4.60099C25.4574 4.92702 25.3615 5.35974 25.0355 5.56751L14.5755 12.2336C14.1043 12.5297 13.5592 12.6871 13.0027 12.6878C12.4463 12.6885 11.9008 12.5326 11.4288 12.2377L11.425 12.2354L0.95135 5.59906C0.624785 5.39215 0.527791 4.95967 0.734707 4.63311Z" fill="white"/>
</svg>
