<svg width="23" height="22" viewBox="0 0 23 22" fill="none" xmlns="http://www.w3.org/2000/svg">
<path d="M13.8528 1.76552C13.8749 1.68216 13.9132 1.60397 13.9655 1.53543C14.0179 1.46689 14.0832 1.40934 14.1578 1.36607C14.2324 1.3228 14.3148 1.29466 14.4003 1.28326C14.4858 1.27186 14.5727 1.27742 14.6561 1.29963C16.2416 1.71101 17.6889 2.53767 18.8487 3.69446C20.0085 4.85124 20.839 6.29632 21.2545 7.88083C21.277 7.96411 21.2827 8.05099 21.2716 8.13651C21.2604 8.22203 21.2325 8.3045 21.1894 8.37922C21.1463 8.45394 21.0889 8.51944 21.0205 8.57196C20.9521 8.62449 20.874 8.66302 20.7907 8.68535C20.7355 8.70015 20.6785 8.70758 20.6212 8.70744C20.4766 8.70772 20.336 8.66024 20.2212 8.57238C20.1064 8.48451 20.0238 8.36119 19.9862 8.22156C19.6295 6.86051 18.9162 5.61921 17.92 4.6256C16.9238 3.63199 15.6806 2.922 14.3187 2.56882C14.2353 2.54671 14.1571 2.50839 14.0886 2.45604C14.02 2.40369 13.9625 2.33835 13.9192 2.26374C13.8759 2.18914 13.8478 2.10673 13.8364 2.02125C13.825 1.93576 13.8306 1.84886 13.8528 1.76552ZM13.4482 6.06996C15.0402 6.49225 16.0609 7.51029 16.4874 9.10114C16.5249 9.24077 16.6075 9.3641 16.7223 9.45196C16.8372 9.53982 16.9778 9.58731 17.1224 9.58703C17.1796 9.58716 17.2366 9.57973 17.2919 9.56493C17.3752 9.5426 17.4533 9.50408 17.5217 9.45155C17.5901 9.39902 17.6475 9.33353 17.6905 9.25881C17.7336 9.18409 17.7615 9.10161 17.7727 9.01609C17.7839 8.93058 17.7781 8.84369 17.7557 8.76042C17.2061 6.71473 15.8328 5.34496 13.7856 4.80077C13.7023 4.77862 13.6154 4.77309 13.53 4.78452C13.4445 4.79594 13.3621 4.82409 13.2875 4.86735C13.1369 4.95472 13.0271 5.09836 12.9823 5.26667C12.9376 5.43497 12.9616 5.61416 13.0489 5.76481C13.1363 5.91545 13.2799 6.02522 13.4482 6.06996ZM22.1509 16.6679C21.9654 18.098 21.2654 19.4115 20.1819 20.363C19.0984 21.3146 17.7054 21.8389 16.2634 21.8382C7.69938 21.8494 0.723068 14.8913 0.711849 6.32727C0.707198 4.88576 1.22747 3.49185 2.17548 2.40592C3.12349 1.31999 4.4344 0.616299 5.86334 0.426301C6.19229 0.385889 6.52547 0.453291 6.81284 0.618383C7.10021 0.783476 7.32626 1.03735 7.45704 1.34187L9.7716 6.4904C9.87381 6.72349 9.9163 6.97837 9.89525 7.23201C9.87419 7.48564 9.79025 7.73002 9.651 7.94306C9.63696 7.96475 9.62165 7.98559 9.60515 8.00547L7.30421 10.7494C7.29026 10.7779 7.28302 10.8091 7.28306 10.8408C7.2831 10.8724 7.29042 10.9037 7.30445 10.9321C8.14451 12.646 9.94497 14.4286 11.6851 15.2631C11.7142 15.2763 11.7459 15.2825 11.7778 15.2813C11.8097 15.2802 11.8409 15.2716 11.8689 15.2563L14.5663 12.9558C14.5856 12.939 14.606 12.9237 14.6275 12.9098C14.8392 12.7683 15.0829 12.6818 15.3365 12.6581C15.5901 12.6345 15.8456 12.6745 16.0798 12.7745L21.2497 15.0832C21.5506 15.216 21.8006 15.4422 21.9629 15.7282C22.1252 16.0142 22.1911 16.3449 22.1509 16.6712L22.1509 16.6679ZM20.8502 16.5078C20.8538 16.462 20.8429 16.4163 20.8191 16.3771C20.7953 16.3379 20.7598 16.3071 20.7176 16.2892L15.5466 13.9805C15.5183 13.9696 15.4881 13.965 15.4579 13.9669C15.4277 13.9689 15.3982 13.9773 15.3716 13.9917L12.6752 16.2921C12.6556 16.3085 12.6348 16.3238 12.614 16.3381C12.394 16.4852 12.1397 16.5728 11.8757 16.5923C11.6118 16.6118 11.3473 16.5626 11.1081 16.4494C9.09869 15.4819 7.09453 13.5016 6.12177 11.5133C6.00736 11.2758 5.95622 11.0127 5.97331 10.7496C5.9904 10.4865 6.07515 10.2322 6.21934 10.0115C6.23339 9.98951 6.24909 9.96865 6.26629 9.94906L8.56613 7.20511C8.57926 7.17645 8.58603 7.14528 8.58599 7.11376C8.58595 7.08223 8.57909 7.05108 8.56589 7.02245L6.2557 1.86954C6.24045 1.82818 6.21305 1.79239 6.1771 1.76687C6.14116 1.74135 6.09834 1.72729 6.05426 1.72652L6.02911 1.72655C4.9169 1.87599 3.8971 2.42513 3.16014 3.27144C2.42318 4.11775 2.01945 5.20336 2.02435 6.32555C2.03462 14.1655 8.42172 20.5359 16.2617 20.5257C17.3841 20.5276 18.4688 20.1209 19.3132 19.3815C20.1576 18.6421 20.7039 17.6206 20.8502 16.5078Z" fill="white"/>
</svg>
