<svg width="29" height="30" viewBox="0 0 29 30" fill="none" xmlns="http://www.w3.org/2000/svg">
<path d="M20.1463 13.9319C19.9519 10.3475 17.9935 8.29554 14.7055 8.27514C12.7231 8.26314 11.0659 9.10314 10.0507 10.6427L11.8603 11.8823C12.6211 10.7291 13.8223 10.4903 14.6923 10.4987C15.7759 10.5059 16.5919 10.8203 17.1211 11.4347C17.5051 11.8811 17.7631 12.4991 17.8915 13.2779C16.9315 13.1147 15.8923 13.0643 14.7835 13.1279C11.6563 13.3079 9.64751 15.1319 9.78191 17.6651C9.85031 18.9503 10.4899 20.0567 11.5843 20.7791C12.5083 21.3899 13.7011 21.6875 14.9383 21.6203C16.5739 21.5303 17.8567 20.9063 18.7519 19.7663C19.4311 18.8999 19.8607 17.7767 20.0503 16.3631C20.8303 16.8335 21.4063 17.4515 21.7267 18.1955C22.2691 19.4603 22.3003 21.5387 20.6047 23.2331C19.1191 24.7163 17.3335 25.3595 14.6347 25.3787C11.6407 25.3571 9.37631 24.3959 7.90511 22.5251C6.52511 20.7731 5.81351 18.2411 5.78711 15.0023C5.81351 11.7623 6.52631 9.23154 7.90511 7.47834C9.37631 5.60754 11.6407 4.64754 14.6347 4.62594C17.6503 4.64874 19.9531 5.61234 21.4819 7.49394C22.2319 8.41554 22.7959 9.57474 23.1691 10.9259L25.2883 10.3619C24.8359 8.69754 24.1255 7.26354 23.1595 6.07434C21.1999 3.66234 18.3199 2.42754 14.6275 2.40234C10.9423 2.42754 8.10791 3.66834 6.20471 6.08754C4.51151 8.24154 3.63671 11.2547 3.60791 15.0107C3.63671 18.7667 4.51151 21.7631 6.20471 23.9171C8.10911 26.3363 10.9567 27.5771 14.6407 27.6023C17.9179 27.5795 20.2267 26.7215 22.1287 24.8219C24.6187 22.3343 24.5431 19.2179 23.7235 17.3051C23.0935 15.8351 21.8395 14.6579 20.1475 13.9331L20.1463 13.9319ZM14.8207 19.4003C13.4503 19.4771 12.0271 18.8627 11.9563 17.5451C11.9047 16.5683 12.6523 15.4787 14.9047 15.3491C15.9227 15.2808 16.9452 15.351 17.9443 15.5579C17.6851 18.8003 16.1623 19.3259 14.8207 19.4003Z" fill="#FF002B"/>
</svg>
