<svg width="29" height="29" viewBox="0 0 29 29" fill="none" xmlns="http://www.w3.org/2000/svg">
<path d="M19.9892 13.8031C19.8002 10.3182 17.8962 8.32325 14.6995 8.30342C12.7722 8.29175 11.161 9.10842 10.174 10.6052L11.9333 11.8104C12.673 10.6892 13.8408 10.4571 14.6867 10.4652C15.7402 10.4722 16.5335 10.7779 17.048 11.3752C17.4213 11.8092 17.6722 12.4101 17.797 13.1672C16.8637 13.0086 15.8533 12.9596 14.7753 13.0214C11.735 13.1964 9.78199 14.9697 9.91266 17.4326C9.97916 18.6821 10.601 19.7577 11.665 20.4601C12.5633 21.0539 13.723 21.3432 14.9258 21.2779C16.516 21.1904 17.7632 20.5837 18.6335 19.4754C19.2938 18.6331 19.7115 17.5411 19.8958 16.1667C20.6542 16.6241 21.2142 17.2249 21.5257 17.9482C22.053 19.1779 22.0833 21.1986 20.4348 22.8459C18.9905 24.2879 17.2545 24.9132 14.6307 24.9319C11.7198 24.9109 9.51832 23.9764 8.08799 22.1576C6.74632 20.4542 6.05449 17.9926 6.02882 14.8438C6.05449 11.6937 6.74749 9.23325 8.08799 7.52875C9.51832 5.70992 11.7198 4.77658 14.6307 4.75558C17.5625 4.77775 19.8013 5.71458 21.2877 7.54392C22.0168 8.43992 22.5652 9.56692 22.928 10.8806L24.9883 10.3323C24.5485 8.71408 23.8578 7.31992 22.9187 6.16375C21.0135 3.81875 18.2135 2.61825 14.6237 2.59375C11.0408 2.61825 8.28516 3.82458 6.43482 6.17658C4.78866 8.27075 3.93816 11.2002 3.91016 14.8519C3.93816 18.5036 4.78866 21.4167 6.43482 23.5109C8.28632 25.8629 11.0548 27.0693 14.6365 27.0938C17.8227 27.0716 20.0673 26.2374 21.9165 24.3906C24.3373 21.9721 24.2638 18.9422 23.467 17.0826C22.8545 15.6534 21.6353 14.5089 19.9903 13.8042L19.9892 13.8031ZM14.8115 19.1196C13.4792 19.1943 12.0955 18.5969 12.0267 17.3159C11.9765 16.3663 12.7033 15.3069 14.8932 15.1809C15.8829 15.1145 16.877 15.1828 17.8483 15.3839C17.5963 18.5363 16.1158 19.0472 14.8115 19.1196Z" fill="white"/>
</svg>
