<svg width="29" height="29" viewBox="0 0 29 29" fill="none" xmlns="http://www.w3.org/2000/svg">
<path d="M26.3554 7.84505C25.4571 8.25339 24.4887 8.52172 23.4854 8.65005C24.5121 8.03172 25.3054 7.05172 25.6787 5.87339C24.7104 6.45672 23.6371 6.86505 22.5054 7.09839C21.5837 6.09505 20.2887 5.51172 18.8187 5.51172C16.0771 5.51172 13.8371 7.75172 13.8371 10.5167C13.8371 10.9134 13.8837 11.2984 13.9654 11.6601C9.81207 11.4501 6.11373 9.45505 3.65206 6.43339C3.2204 7.16839 2.9754 8.03172 2.9754 8.94172C2.9754 10.6801 3.8504 12.2201 5.20373 13.0951C4.3754 13.0951 3.6054 12.8617 2.92873 12.5117V12.5467C2.92873 14.9734 4.6554 17.0034 6.94206 17.4584C6.20791 17.6593 5.43718 17.6873 4.6904 17.5401C5.00727 18.5346 5.62786 19.4049 6.46492 20.0285C7.30198 20.6521 8.31342 20.9977 9.35706 21.0167C7.58797 22.4172 5.39506 23.1743 3.13873 23.1634C2.74206 23.1634 2.3454 23.1401 1.94873 23.0934C4.1654 24.5167 6.80206 25.3451 9.6254 25.3451C18.8187 25.3451 23.8704 17.7151 23.8704 11.1001C23.8704 10.8784 23.8704 10.6684 23.8587 10.4467C24.8387 9.74672 25.6787 8.86005 26.3554 7.84505Z" fill="white"/>
</svg>
